<svg width="18" height="19" viewBox="0 0 18 19" fill="none" xmlns="http://www.w3.org/2000/svg">
<path d="M14.4594 9.98305C14.5394 9.86305 14.5894 9.74305 14.6094 9.62305C14.6294 9.50305 14.5994 9.38305 14.5194 9.26305L10.4994 5.18305C10.3794 5.06305 10.2394 5.00305 10.0794 5.00305C9.91938 5.00305 9.78938 5.06305 9.68938 5.18305C9.58938 5.30305 9.53938 5.44305 9.53938 5.60305C9.53938 5.76305 9.57938 5.88305 9.65938 5.96305L12.7194 9.02305H3.95938C3.79938 9.02305 3.65938 9.07305 3.53938 9.17305C3.41938 9.27305 3.35938 9.40305 3.35938 9.56305C3.35938 9.72305 3.41938 9.85305 3.53938 9.95305C3.65938 10.053 3.79938 10.103 3.95938 10.103H12.7194L9.65938 13.163C9.57938 13.243 9.53938 13.363 9.53938 13.523C9.53938 13.683 9.58938 13.823 9.68938 13.943C9.78938 14.063 9.91938 14.123 10.0794 14.123C10.2394 14.123 10.3794 14.063 10.4994 13.943L14.4594 9.98305Z" fill="#871E35"/>
</svg>
